<svg id="Capa_1" data-name="Capa 1" xmlns="http://www.w3.org/2000/svg" viewBox="0 0 209.02 200.86"><defs><style>.cls-1{fill:#be1622;}.cls-2{fill:#1d1d1b;}.cls-3{fill:#fff;stroke:#1d1d1b;stroke-miterlimit:10;stroke-width:4px;}</style></defs><path class="cls-1" d="M171.74,27.92C168.57,9.78,146.12,3.39,127.8,1.63c-22.94-2.2-46.47-3-68.65,3.19S16.06,25.34,6.72,46.4C.4,60.66-.23,76.73.06,92.31c.45,24.53,6,53.52,28.39,63.49,3.84,1.71,8.12,2.8,11.18,5.69,5.12,4.83,5.12,12.83,7.73,19.38,4.51,11.31,17.08,17.75,29.23,18.6s24.12-2.86,35.74-6.52l50.73-16c13.8-4.34,28.52-9.31,37.19-20.89,9.54-12.76,9.26-30.11,8.35-46-1-18.26-2.41-36.77-8.59-54S182.2,22.87,165.53,15.35"/><path class="cls-2" d="M173,27.58C169.53,8.75,147.22,2.74,131,.73A255.92,255.92,0,0,0,93-1.18c-12.74.34-25.58,2-37.74,5.89C35.39,11.1,16.63,24,7,42.9,1.37,54-.6,66.44-1.1,78.76A177.09,177.09,0,0,0,.23,110.82c2.52,17.83,9.51,37.63,27,45.78,5,2.33,10.76,3.5,13.75,8.58,2.63,4.45,3,9.82,4.69,14.64,3.33,9.8,12.05,16.34,21.72,19.23,11.89,3.56,24.52,1.22,36.17-2.12,13.24-3.78,26.33-8.19,39.47-12.32l19.91-6.27c5.23-1.65,10.46-3.32,15.53-5.41,9.86-4.07,19.24-9.85,24.88-19.18,5.86-9.7,7-21.39,6.94-32.49-.05-6.06-.44-12.11-.84-18.15-.43-6.51-1-13-1.82-19.49-3-22.57-10.51-45.91-28.48-61.08a56.46,56.46,0,0,0-13-8.27c-1.45-.67-2.72,1.49-1.26,2.16,20,9.11,31.7,29.44,36.95,50,3.14,12.3,4.33,25,5.14,37.63.72,11.21,1.64,22.73-.47,33.85A43.83,43.83,0,0,1,201,152.82,38.08,38.08,0,0,1,190,164c-8.92,6.13-19.46,9.27-29.67,12.48L122,188.61c-12.44,3.92-25.14,8.8-38.28,9.61-10.23.64-21.06-1.72-28.81-8.81A25.83,25.83,0,0,1,47.41,177c-1.33-4.72-2-9.89-4.86-14-3.24-4.72-8.5-6.1-13.47-8.31a36,36,0,0,1-10.59-7.2c-6.41-6.29-10.36-14.64-12.85-23.16a116.31,116.31,0,0,1-4.2-27.83C.93,84.8,1,72.76,3.38,61.22A64.82,64.82,0,0,1,17.57,31.64,79.92,79.92,0,0,1,41.51,13.09C63.07,1.92,88,.34,111.81,1.64c10.56.58,21.32,1.25,31.59,3.94,8.1,2.13,16.52,5.56,22.12,12a22.31,22.31,0,0,1,5,10.63c.28,1.58,2.69.91,2.41-.67Z"/><path class="cls-3" d="M173.44,129.09A396.92,396.92,0,0,0,134,91.85q-5.13-4.21-10.39-8.26c1.79-2.62,3.58-5.22,5.4-7.8q7-9.9,14.4-19.49l1.05-1.36c1.71-2.18,2.93-4.18,2.93-7.07a10.18,10.18,0,0,0-2.93-7.07,10,10,0,0,0-7.07-2.93c-2.46.11-5.48.89-7.07,2.93q-11.85,15.14-22.73,31A199.65,199.65,0,0,0,88.38,59.52c-10-5.47-20.57-9.33-32-10.16a10.07,10.07,0,0,0-7.07,2.93,10,10,0,0,0,0,14.14,11.08,11.08,0,0,0,7.07,2.93c.67,0,1.33.13,2,.2A61.77,61.77,0,0,1,70.81,73.1,134.6,134.6,0,0,1,91.49,85c1.69,1.13,3.36,2.28,5,3.43q-9.23,14.44-17.6,29.43-6.27,11.25-12,22.76a10.62,10.62,0,0,0-1,7.71,10.18,10.18,0,0,0,4.59,6,10.06,10.06,0,0,0,7.71,1,9.93,9.93,0,0,0,6-4.59q13-25.92,28.51-50.43a395.37,395.37,0,0,1,36.51,32.41q5.18,5.19,10.14,10.58c3.56,3.85,10.58,3.87,14.14,0A10.23,10.23,0,0,0,173.44,129.09Z"/></svg>
